<svg xmlns="http://www.w3.org/2000/svg" fill="none" viewBox="0 0 238 60" height="60" width="238">
<g clip-path="url(#clip0_81_130)">
<circle fill="#FCE566" r="5" cy="13" cx="173"></circle>
<path fill="black" d="M136.24 13.262C136.94 12.8401 137.51 12.4732 138.233 12.1466C140.095 11.3097 142.029 10.7237 144.035 10.3887C145.234 10.1879 146.375 10.1229 147.458 10.1936C147.478 10.195 147.499 10.1925 147.518 10.1862C147.537 10.1798 147.555 10.1697 147.571 10.1565C147.586 10.1433 147.599 10.1272 147.608 10.1092C147.617 10.0912 147.622 10.0716 147.623 10.0515C147.922 6.00334 149.979 2.7928 154.002 1.61377C154.787 1.38333 156.248 1.27589 158.387 1.29144C161.63 1.31548 164.211 1.32396 166.13 1.31689C166.286 1.31548 166.441 1.33328 166.592 1.3699C167.362 1.55863 168.066 1.4314 168.787 1.34658C169.12 1.30841 169.543 1.29003 170.055 1.29144C173.272 1.29851 175.131 1.3077 175.632 1.31901C179.693 1.41232 183.544 3.4523 185.45 7.10816C186.16 8.46956 186.613 9.77442 186.809 11.0227C186.814 11.0543 186.825 11.0845 186.842 11.1118C186.859 11.139 186.881 11.1627 186.907 11.1814C186.933 11.2002 186.962 11.2136 186.994 11.2209C187.025 11.2283 187.057 11.2294 187.089 11.2242C188.148 11.0461 189.207 10.9315 190.266 10.8806C193.957 10.7011 197.375 11.5366 200.521 13.3872C200.557 13.4084 200.598 13.42 200.64 13.4207C200.682 13.4215 200.724 13.4114 200.76 13.3914C201.35 13.0691 201.942 12.7192 202.605 12.452C205.351 11.3394 208.182 10.8312 211.1 10.9273C212.022 10.9584 213.41 11.1903 215.265 11.6228C215.386 11.651 215.511 11.6653 215.636 11.6653C220.444 11.6568 223.111 11.6695 223.635 11.7034C227.717 11.9727 231.078 14.6065 232.107 18.5719C232.339 19.4654 232.429 20.7038 232.378 22.2872C232.351 23.1241 232.342 24.6898 232.351 26.9842C232.352 27.4182 232.285 27.9102 232.149 28.4602C232.142 28.4905 232.144 28.5224 232.156 28.5514C232.168 28.5803 232.188 28.6048 232.215 28.6213C235.158 30.4747 236.988 33.0816 237.705 36.442C237.875 37.2435 237.943 38.1547 237.909 39.1754C237.87 40.3311 238.002 41.648 237.741 42.8397C237.409 44.3609 236.841 45.7117 236.036 46.8921C233.978 49.9189 231.108 51.6139 227.427 51.9772C226.963 52.0225 226.653 52.0529 226.496 52.0684C226.462 52.0718 226.429 52.0822 226.399 52.099C226.369 52.1158 226.344 52.1387 226.324 52.166C224.817 54.206 222.936 55.8437 220.681 57.0793C217.831 58.6401 214.778 59.5251 211.522 59.7343C206.457 60.0608 201.788 58.8832 197.516 56.2014C195.715 55.0704 194.121 53.5882 192.734 51.7546C192.713 51.7269 192.686 51.7045 192.654 51.689C192.623 51.6736 192.589 51.6655 192.554 51.6655C184.47 51.657 172.965 51.6549 158.037 51.6592C156.57 51.6592 155.293 51.3771 154.206 50.8131C154.176 50.797 154.142 50.7874 154.108 50.7848C154.074 50.7823 154.039 50.7868 154.006 50.7982C152.337 51.3665 150.923 51.7164 149.765 51.8479C145.055 52.3823 140.263 51.4089 136.289 48.7625C136.262 48.7444 136.23 48.7349 136.198 48.7353C136.166 48.7357 136.135 48.7459 136.109 48.7646C133.852 50.3635 130.956 51.3496 128.296 51.727C123.586 52.3943 119.24 51.5256 115.259 49.1208C115.226 49.1002 115.187 49.0888 115.148 49.0877C115.109 49.0866 115.069 49.0958 115.034 49.1145C112.801 50.2766 110.207 51.1552 107.252 51.7503C102.362 52.7364 97.0351 52.132 92.4801 49.8164C92.4689 49.8107 92.4567 49.8073 92.4443 49.8063C92.4318 49.8052 92.4194 49.8066 92.4075 49.8104C92.3957 49.8141 92.3848 49.8201 92.3754 49.8281C92.366 49.836 92.3584 49.8457 92.3529 49.8567C90.6246 53.2941 87.6049 55.93 84.1293 57.5713C82.1925 58.4874 80.3307 59.1038 78.5437 59.4204C72.3234 60.526 66.5696 59.5102 61.2823 56.3732C59.1024 55.0796 57.2773 53.4567 55.807 51.5044C55.7838 51.4735 55.752 51.45 55.7155 51.4368C55.679 51.4237 55.6393 51.4213 55.6013 51.4301C54.4986 51.6973 53.4313 51.9165 52.3993 52.0875C49.9903 52.4883 47.3481 52.255 45.0239 51.6486C44.8036 51.591 44.5748 51.5717 44.3475 51.5913C43.8795 51.6309 43.3755 51.6514 42.8355 51.6528C25.01 51.6754 13.6431 51.6733 8.73465 51.6464C8.15149 51.6443 7.73798 51.6337 7.2142 51.5171C2.68891 50.5056 -0.0826694 46.8773 -0.0317758 42.2099C-0.0119838 40.5474 -0.0148131 38.3696 -0.0402599 35.6764C-0.0558107 33.9376 0.0735443 32.608 0.347804 31.6877C0.887842 29.8725 1.8633 28.4029 3.27419 27.279C3.31392 27.2472 3.34598 27.2068 3.36801 27.161C3.39003 27.1151 3.40145 27.0648 3.40142 27.0139V26.1318C3.40145 26.0903 3.39187 26.0495 3.37346 26.0127C3.35504 25.9759 3.3283 25.944 3.29539 25.9197C0.566221 23.8925 -0.093272 21.0339 -0.0381372 17.7979C-0.00986302 16.2612 -0.00421102 13.3843 -0.0211756 9.16723C-0.0254167 8.03768 0.0551647 7.12866 0.220569 6.44018C0.740108 4.27296 1.97004 2.3899 3.92944 1.27872C5.84856 0.188749 7.41354 0.0551535 9.85643 0.053033C17.7958 0.0502056 29.1755 0.0579779 43.9954 0.0763561C45.1208 0.0777698 46.3316 0.364759 47.628 0.937312C50.7049 2.2966 52.4205 5.27811 52.4671 8.64133C52.477 9.30719 52.4756 9.90095 52.4629 10.4226C52.4626 10.4426 52.4663 10.4624 52.4737 10.4809C52.4812 10.4994 52.4922 10.5162 52.5062 10.5304C52.5202 10.5446 52.5369 10.5559 52.5553 10.5636C52.5737 10.5713 52.5935 10.5753 52.6134 10.5753C59.2649 10.5597 63.0282 10.5604 63.9033 10.5774C64.1945 10.5831 64.9254 10.7485 66.096 11.0736C66.1806 11.0972 66.2694 11.0972 66.3526 11.0736C67.7606 10.6834 68.8329 10.4283 69.5695 10.3081C72.2697 9.8656 74.9692 9.97163 77.6679 10.6262C77.7073 10.636 77.7487 10.6403 77.7909 10.6389L82.999 10.6262C83.0352 10.6263 83.0708 10.6172 83.1024 10.5997C83.1339 10.5823 83.1604 10.5571 83.1793 10.5265C85.5868 6.66143 88.8673 3.88631 93.0208 2.20117C94.8671 1.45049 96.8824 0.905504 99.0666 0.566213C101.133 0.245301 103.093 0.187337 104.945 0.392325C110.868 1.04758 117.017 3.52016 120.607 8.48441C120.777 8.71909 121.099 9.35879 121.572 10.4035C121.586 10.4336 121.609 10.4586 121.638 10.4746C121.667 10.4907 121.7 10.497 121.733 10.4926C123.188 10.2961 124.11 10.183 124.499 10.1533C124.998 10.1165 125.502 10.1144 126.01 10.1469C129.596 10.3816 132.94 11.42 136.043 13.262C136.073 13.2795 136.107 13.2886 136.141 13.2886C136.176 13.2886 136.21 13.2795 136.24 13.262ZM118.86 14.3138C118.892 12.0109 118.096 10.0579 116.47 8.45472C115.21 7.21207 113.683 6.16875 111.888 5.32476C107.333 3.18016 102.627 2.6684 97.7709 3.78947C94.7873 4.47866 91.5746 6.00758 89.2632 8.20237C88.2552 9.15945 87.5752 9.86066 87.2232 10.306C86.5022 11.2164 85.8491 12.264 85.2638 13.4487C85.2484 13.4793 85.2248 13.5051 85.1956 13.5231C85.1664 13.5411 85.1327 13.5505 85.0984 13.5504L77.2247 13.5695C77.1937 13.5695 77.1631 13.566 77.1335 13.5589C73.4749 12.6358 69.9172 12.9072 66.4607 14.3732C66.3967 14.4005 66.3239 14.402 66.2572 14.3775C66.2246 14.3662 66.0896 14.3068 65.8521 14.1993C64.7494 13.7031 63.9669 13.5314 62.8155 13.5314C57.5027 13.5328 54.2003 13.5356 52.9082 13.5398C52.6975 13.5398 52.3215 13.6282 51.78 13.8049C51.7018 13.8297 51.6165 13.8267 51.5383 13.7964L50.9255 13.5653C50.889 13.5512 50.8495 13.5434 50.8088 13.542L48.7879 13.4868C48.7635 13.4863 48.7404 13.4762 48.7233 13.4588C48.7063 13.4413 48.6967 13.4179 48.6967 13.3935L48.7243 7.32658C48.7243 7.20957 48.7122 7.09372 48.6883 6.98093C48.2854 5.15724 47.2993 3.95912 45.7301 3.38657C45.1533 3.17592 44.2117 3.0706 42.9055 3.0706C39.9805 3.06919 34.8777 3.06848 27.5971 3.06848C27.0988 3.06848 26.628 3.22964 26.2272 3.26145C26.119 3.26848 26.0095 3.25846 25.9028 3.23176C25.4376 3.11301 25.162 3.05363 25.0757 3.05363C18.9911 3.09039 13.8233 3.0911 9.57228 3.05576C8.21653 3.04445 7.25237 3.13846 6.67982 3.33779C5.33962 3.8029 4.40657 4.72747 3.88067 6.1115C3.64034 6.74484 3.54209 7.77331 3.58591 9.19692C3.59863 9.63376 3.58803 12.0279 3.5541 16.3793C3.54421 17.6021 3.64317 18.4695 3.85098 18.9812C4.29418 20.0712 5.56016 21.3626 6.89399 21.4411C6.93244 21.4432 6.96859 21.4601 6.99502 21.4881C7.02144 21.5161 7.03613 21.5531 7.03607 21.5916V28.7422C7.03606 28.7677 7.02717 28.7925 7.01092 28.8122C6.99468 28.832 6.97209 28.8454 6.94701 28.8503C5.49866 29.1366 4.38112 30.3984 3.88703 31.7428C3.69618 32.2645 3.60217 33.2753 3.605 34.7752C3.61348 38.8128 3.61843 40.8634 3.61984 40.927C3.68982 43.1514 4.83916 44.8415 6.87067 45.6749C7.41636 45.8983 8.39889 46.0128 9.81826 46.0185C14.7563 46.0354 19.6655 46.0368 24.5456 46.0227C25.1309 46.0199 25.6115 45.9548 25.9876 45.8276C26.0704 45.7986 26.1607 45.7956 26.2463 45.8191L26.9758 46.0206C27.0137 46.0318 27.053 46.0375 27.0924 46.0375C31.0508 46.0319 36.2631 46.0319 42.7295 46.0375C43.0645 46.0375 43.6533 45.9124 44.4959 45.6622C44.59 45.6345 44.6902 45.6345 44.7843 45.6622C44.8196 45.6721 45.1978 45.7859 45.9188 46.0036C47.9517 46.6143 50.102 46.7133 52.3696 46.3005C53.2757 46.1351 53.9084 45.9895 54.2675 45.8637C54.345 45.8364 54.4301 45.8402 54.505 45.8743C54.734 45.976 55.05 46.0255 55.4529 46.0227C55.8713 46.0213 56.7393 46.0234 58.0569 46.0291C58.0915 46.029 58.1253 46.0393 58.154 46.0586C58.1827 46.0778 58.205 46.1052 58.2181 46.1372C58.8967 47.7467 60.2072 49.0763 61.5877 50.1239C65.4174 53.0333 70.1039 54.3798 75.013 54.1402C82.102 53.7967 88.6334 49.7401 90.5016 42.6425C90.5048 42.629 90.5114 42.6166 90.5208 42.6064C90.5301 42.5962 90.542 42.5885 90.5553 42.5841C90.5686 42.5797 90.5829 42.5786 90.5969 42.5811C90.6108 42.5835 90.624 42.5893 90.6352 42.598C96.2398 46.9897 104.226 47.4286 110.715 44.9666C112.167 44.4153 113.67 43.7148 115.223 42.8652C115.248 42.8518 115.276 42.8459 115.304 42.8481C115.332 42.8504 115.36 42.8607 115.382 42.8779C117.552 44.5065 119.75 45.5222 121.975 45.9251C127.358 46.8992 132.084 45.6629 136.151 42.2163C136.17 42.1994 136.195 42.1902 136.221 42.1906C136.247 42.191 136.272 42.2009 136.291 42.2184C137.469 43.2858 138.762 44.1615 140.172 44.8458C141.443 45.4622 142.938 45.8905 144.657 46.1308C147.847 46.5747 150.934 46.1641 153.915 44.8988C153.95 44.8837 153.988 44.8771 154.025 44.8797C154.063 44.8823 154.099 44.8939 154.131 44.9136C155.313 45.6417 156.422 46.0078 157.456 46.0121C166.336 46.0375 176.819 46.0432 188.904 46.0291C189.488 46.0291 189.816 45.9485 190.274 45.6898C190.313 45.6687 190.356 45.6585 190.4 45.6604C190.444 45.6623 190.486 45.6761 190.522 45.7004C190.828 45.9096 191.177 46.0227 191.57 46.0397C192.348 46.0736 193.436 46.0835 194.836 46.0693C194.864 46.0687 194.891 46.0762 194.915 46.0909C194.938 46.1056 194.957 46.1268 194.969 46.1521C195.75 47.8379 196.992 49.1654 198.547 50.3529C202.105 53.0736 206.02 54.1063 210.424 54.1211C211.603 54.124 213.008 53.9275 214.64 53.5316C218.652 52.554 222.45 49.9839 224.409 46.3365C224.425 46.3079 224.449 46.2844 224.477 46.2686C224.506 46.2528 224.538 46.2455 224.57 46.2475C225.8 46.3182 226.692 46.3189 227.244 46.2496C230.752 45.8128 233.453 43.565 234.1 40.1042C234.301 39.0354 234.361 38.1038 234.28 37.3093C234.01 34.6543 232.806 32.6433 230.667 31.2763C229.481 30.5192 228.171 30.1439 226.86 30.0909C226.856 30.0903 226.851 30.0881 226.848 30.0846C226.845 30.0811 226.843 30.0765 226.843 30.0718V28.2142C226.843 28.1927 226.848 28.1717 226.856 28.1523C226.865 28.133 226.877 28.1158 226.892 28.1018C227.087 27.9222 227.299 27.7392 227.528 27.5525C228.226 26.9842 228.65 25.9833 228.699 25.1245C228.734 24.5067 228.744 22.9439 228.729 20.4359C228.722 19.4986 228.653 18.8172 228.523 18.3917C227.986 16.6571 226.767 15.5247 225.077 14.8991C224.445 14.6659 223.453 14.5542 222.1 14.5641C218.396 14.5923 216.137 14.6114 215.325 14.6213C215.26 14.6213 215.196 14.6135 215.134 14.598C214.883 14.5344 214.407 14.4057 213.704 14.2121C211.145 13.5102 208.547 13.7413 205.888 14.4877C204.004 15.0179 202.299 15.8901 200.775 17.1045C200.75 17.1244 200.719 17.135 200.687 17.1346C200.655 17.1342 200.624 17.1228 200.599 17.1024C196.776 13.8982 191.969 13.0012 187.163 14.193C187.045 14.2221 186.921 14.2192 186.803 14.1845C186.444 14.0785 186.184 14.0255 186.025 14.0255C184.518 14.024 183.652 14.0247 183.429 14.0276C183.395 14.0282 183.362 14.0154 183.337 13.9921C183.312 13.9687 183.297 13.9366 183.296 13.9025C183.294 13.8728 183.326 13.4882 183.391 12.7489C183.524 11.2645 183.223 9.83451 182.488 8.45897C181.204 6.05424 179.167 4.64265 176.376 4.22419C175.432 4.08141 174.557 4.08282 173.753 4.22843C173.631 4.25085 173.506 4.24941 173.384 4.22419C171.509 3.83118 169.625 3.99022 167.731 4.70132C167.667 4.72467 167.598 4.72616 167.533 4.70556C166.515 4.37334 165.885 4.20581 165.642 4.20298C165.071 4.19309 162.408 4.17471 157.654 4.14785C156.552 4.14219 155.752 4.20157 155.253 4.32597C153.538 4.75645 152.212 5.83582 151.536 7.47714C151.336 7.96346 151.253 8.64416 151.286 9.51925C151.311 10.1766 151.322 11.5486 151.319 13.6353C151.32 13.6461 151.317 13.6569 151.312 13.6666C151.308 13.6764 151.3 13.6849 151.292 13.6915C151.283 13.6981 151.272 13.7026 151.261 13.7046C151.25 13.7066 151.239 13.7061 151.228 13.7031C148.083 12.8273 144.5 13.0691 141.48 14.07C139.839 14.6143 138.086 15.6548 136.221 17.1915C136.201 17.2073 136.177 17.2156 136.151 17.2148C136.126 17.214 136.102 17.2042 136.083 17.1872C132.769 14.2665 128.866 12.9397 124.371 13.2069C122.525 13.3158 120.733 13.7158 118.996 14.4072C118.981 14.413 118.964 14.4151 118.948 14.4132C118.932 14.4114 118.917 14.4056 118.903 14.3964C118.89 14.3872 118.879 14.3748 118.871 14.3605C118.864 14.3461 118.86 14.3301 118.86 14.3138Z"></path>
<path fill="#FCE566" d="M118.996 14.4072C120.733 13.7159 122.525 13.3158 124.371 13.2069C128.866 12.9397 132.769 14.2665 136.083 17.1872C136.102 17.2043 136.126 17.214 136.151 17.2148C136.177 17.2156 136.201 17.2073 136.221 17.1915C138.086 15.6548 139.839 14.6143 141.48 14.07C144.5 13.0691 148.084 12.8273 151.228 13.7031C151.239 13.7061 151.25 13.7066 151.261 13.7046C151.272 13.7026 151.283 13.6981 151.292 13.6915C151.3 13.6849 151.308 13.6764 151.312 13.6666C151.317 13.6569 151.32 13.6461 151.319 13.6353C151.322 11.5486 151.311 10.1766 151.286 9.51926C151.253 8.64417 151.336 7.96347 151.536 7.47715C152.212 5.83583 153.538 4.75646 155.253 4.32599C155.752 4.20158 156.552 4.1422 157.654 4.14786C162.408 4.17472 165.071 4.1931 165.642 4.203C165.885 4.20582 166.515 4.37335 167.533 4.70557C167.598 4.72617 167.667 4.72468 167.731 4.70133C169.625 3.99023 171.509 3.83119 173.384 4.2242C173.506 4.24942 173.631 4.25086 173.753 4.22844C174.557 4.08283 175.432 4.08142 176.376 4.2242C179.167 4.64266 181.204 6.05425 182.488 8.45898C183.223 9.83452 183.524 11.2645 183.391 12.7489C183.326 13.4883 183.294 13.8728 183.296 13.9025C183.297 13.9366 183.312 13.9687 183.337 13.9921C183.362 14.0154 183.395 14.0282 183.429 14.0276C183.652 14.0248 184.518 14.0241 186.025 14.0255C186.184 14.0255 186.444 14.0785 186.803 14.1845C186.921 14.2192 187.045 14.2222 187.163 14.193C191.969 13.0012 196.776 13.8982 200.599 17.1024C200.624 17.1228 200.655 17.1342 200.687 17.1346C200.719 17.135 200.75 17.1244 200.775 17.1045C202.299 15.8902 204.004 15.0179 205.888 14.4877C208.547 13.7413 211.145 13.5102 213.704 14.2121C214.407 14.4057 214.883 14.5344 215.134 14.598C215.196 14.6135 215.26 14.6214 215.325 14.6213C216.137 14.6114 218.396 14.5924 222.1 14.5641C223.453 14.5542 224.445 14.6659 225.077 14.8991C226.767 15.5247 227.986 16.6571 228.523 18.3917C228.653 18.8172 228.722 19.4986 228.729 20.4359C228.744 22.9439 228.734 24.5067 228.699 25.1245C228.65 25.9833 228.226 26.9842 227.528 27.5526C227.299 27.7392 227.087 27.9222 226.892 28.1018C226.877 28.1158 226.865 28.133 226.856 28.1523C226.848 28.1717 226.844 28.1928 226.843 28.2142V30.0718C226.843 30.0765 226.845 30.0811 226.848 30.0846C226.851 30.0881 226.856 30.0904 226.86 30.0909C228.171 30.1439 229.481 30.5192 230.667 31.2763C232.806 32.6433 234.01 34.6543 234.28 37.3093C234.361 38.1038 234.301 39.0354 234.1 40.1042C233.453 43.565 230.752 45.8128 227.244 46.2496C226.692 46.3189 225.8 46.3182 224.57 46.2475C224.538 46.2455 224.506 46.2529 224.477 46.2686C224.449 46.2844 224.425 46.3079 224.409 46.3366C222.45 49.9839 218.652 52.5541 214.64 53.5316C213.008 53.9275 211.603 54.124 210.424 54.1211C206.02 54.1063 202.105 53.0736 198.547 50.3529C196.992 49.1654 195.75 47.8379 194.969 46.1521C194.957 46.1268 194.938 46.1056 194.915 46.0909C194.891 46.0762 194.864 46.0687 194.836 46.0694C193.436 46.0835 192.348 46.0736 191.57 46.0397C191.177 46.0227 190.828 45.9096 190.522 45.7004C190.486 45.6761 190.444 45.6623 190.4 45.6604C190.356 45.6586 190.313 45.6687 190.274 45.6898C189.816 45.9485 189.488 46.0291 188.904 46.0291C176.819 46.0432 166.336 46.0375 157.456 46.0121C156.422 46.0079 155.313 45.6417 154.131 44.9136C154.099 44.8939 154.063 44.8823 154.025 44.8797C153.988 44.8771 153.95 44.8837 153.915 44.8988C150.934 46.1641 147.847 46.5748 144.657 46.1308C142.938 45.8905 141.443 45.4622 140.172 44.8458C138.762 44.1615 137.469 43.2858 136.291 42.2184C136.272 42.2009 136.247 42.191 136.221 42.1906C136.195 42.1902 136.17 42.1994 136.151 42.2163C132.084 45.6629 127.358 46.8992 121.975 45.9252C119.75 45.5223 117.552 44.5065 115.382 42.8779C115.36 42.8607 115.332 42.8504 115.304 42.8481C115.276 42.8459 115.248 42.8518 115.223 42.8652C113.67 43.7148 112.167 44.4153 110.715 44.9667C104.226 47.4286 96.2399 46.9897 90.6352 42.598C90.624 42.5893 90.6108 42.5835 90.5969 42.5811C90.5829 42.5786 90.5686 42.5797 90.5554 42.5841C90.5421 42.5886 90.5302 42.5962 90.5208 42.6064C90.5114 42.6166 90.5048 42.629 90.5016 42.6425C88.6334 49.7401 82.1021 53.7967 75.013 54.1402C70.1039 54.3799 65.4174 53.0333 61.5877 50.1239C60.2072 49.0763 58.8967 47.7467 58.2181 46.1372C58.205 46.1052 58.1827 46.0778 58.154 46.0586C58.1253 46.0393 58.0915 46.029 58.0569 46.0291C56.7394 46.0234 55.8713 46.0213 55.4529 46.0227C55.05 46.0255 54.734 45.9761 54.505 45.8743C54.4302 45.8402 54.345 45.8364 54.2675 45.8637C53.9084 45.9895 53.2758 46.1351 52.3696 46.3005C50.102 46.7133 47.9517 46.6143 45.9188 46.0036C45.1978 45.7859 44.8196 45.6721 44.7843 45.6622C44.6902 45.6345 44.59 45.6345 44.4959 45.6622C43.6533 45.9124 43.0645 46.0375 42.7295 46.0375C36.2632 46.0319 31.0508 46.0319 27.0924 46.0375C27.053 46.0375 27.0138 46.0318 26.9758 46.0206L26.2463 45.8191C26.1607 45.7956 26.0705 45.7986 25.9876 45.8276C25.6115 45.9548 25.1309 46.0199 24.5456 46.0227C19.6655 46.0368 14.7564 46.0354 9.81827 46.0185C8.3989 46.0128 7.41637 45.8983 6.87068 45.6749C4.83917 44.8416 3.68983 43.1515 3.61985 40.927C3.61844 40.8634 3.61349 38.8128 3.60501 34.7752C3.60218 33.2753 3.69619 32.2645 3.88704 31.7428C4.38113 30.3984 5.49867 29.1366 6.94702 28.8503C6.9721 28.8454 6.99469 28.832 7.01093 28.8122C7.02718 28.7925 7.03607 28.7678 7.03608 28.7422V21.5917C7.03614 21.5531 7.02145 21.5161 6.99503 21.4881C6.9686 21.4601 6.93245 21.4433 6.894 21.4411C5.56017 21.3626 4.29419 20.0712 3.85099 18.9812C3.64318 18.4695 3.54422 17.6022 3.55411 16.3793C3.58804 12.0279 3.59864 9.63377 3.58592 9.19693C3.5421 7.77332 3.64035 6.74485 3.88068 6.11151C4.40658 4.72748 5.33963 3.80291 6.67983 3.3378C7.25238 3.13847 8.21654 3.04446 9.57229 3.05577C13.8233 3.09111 18.9911 3.0904 25.0758 3.05365C25.162 3.05365 25.4377 3.11302 25.9028 3.23177C26.0095 3.25847 26.119 3.26849 26.2272 3.26146C26.628 3.22966 27.0988 3.06849 27.5971 3.06849C34.8777 3.06849 39.9805 3.0692 42.9055 3.07061C44.2118 3.07061 45.1533 3.17593 45.7301 3.38658C47.2993 3.95913 48.2854 5.15725 48.6883 6.98094C48.7122 7.09373 48.7243 7.20958 48.7243 7.32659L48.6968 13.3935C48.6968 13.4179 48.7063 13.4413 48.7233 13.4588C48.7404 13.4762 48.7636 13.4863 48.7879 13.4868L50.8088 13.542C50.8496 13.5434 50.889 13.5513 50.9255 13.5653L51.5383 13.7964C51.6165 13.8267 51.7018 13.8297 51.7801 13.8049C52.3215 13.6282 52.6976 13.5399 52.9082 13.5399C54.2003 13.5356 57.5028 13.5328 62.8155 13.5314C63.967 13.5314 64.7494 13.7031 65.8521 14.1993C66.0896 14.3068 66.2247 14.3662 66.2572 14.3775C66.3239 14.4021 66.3967 14.4005 66.4607 14.3732C69.9173 12.9072 73.4749 12.6358 77.1336 13.5589C77.1631 13.566 77.1937 13.5695 77.2247 13.5695L85.0984 13.5505C85.1327 13.5505 85.1664 13.5411 85.1956 13.5231C85.2248 13.5051 85.2484 13.4793 85.2638 13.4487C85.8491 12.264 86.5022 11.2164 87.2232 10.306C87.5752 9.86067 88.2552 9.15947 89.2632 8.20238C91.5746 6.0076 94.7873 4.47867 97.7709 3.78948C102.627 2.66841 107.333 3.18017 111.888 5.32477C113.683 6.16876 115.21 7.21208 116.47 8.45473C118.096 10.0579 118.892 12.0109 118.86 14.3139C118.86 14.3301 118.864 14.3461 118.871 14.3605C118.879 14.3749 118.89 14.3872 118.903 14.3964C118.917 14.4056 118.932 14.4114 118.948 14.4132C118.964 14.4151 118.981 14.413 118.996 14.4072ZM20.7074 27.7837C20.7074 27.7539 20.7192 27.7253 20.7403 27.7042C20.7614 27.6832 20.79 27.6713 20.8198 27.6713H31.3547C31.3846 27.6713 31.4131 27.6832 31.4342 27.7042C31.4553 27.7253 31.4671 27.7539 31.4671 27.7837V34.3002C31.4671 34.33 31.4553 34.3586 31.4342 34.3797C31.4131 34.4008 31.3846 34.4126 31.3547 34.4126H28.5302C28.5003 34.4126 28.4718 34.4244 28.4507 34.4455C28.4296 34.4666 28.4178 34.4952 28.4178 34.525V39.9918C28.4178 40.0216 28.4296 40.0502 28.4507 40.0713C28.4718 40.0924 28.5003 40.1042 28.5302 40.1042H42.2248C42.2546 40.1042 42.2832 40.0924 42.3043 40.0713C42.3253 40.0502 42.3372 40.0216 42.3372 39.9918V34.5186C42.3372 34.4888 42.3253 34.4602 42.3043 34.4392C42.2832 34.4181 42.2546 34.4062 42.2248 34.4062H39.3875C39.3577 34.4062 39.3291 34.3944 39.308 34.3733C39.2869 34.3522 39.2751 34.3237 39.2751 34.2938V15.0094C39.2751 14.9796 39.2869 14.951 39.308 14.9299C39.3291 14.9089 39.3577 14.897 39.3875 14.897H42.6171C42.6469 14.897 42.6755 14.8852 42.6966 14.8641C42.7176 14.843 42.7295 14.8144 42.7295 14.7846V9.16725C42.7295 9.13744 42.7176 9.10885 42.6966 9.08777C42.6755 9.06669 42.6469 9.05486 42.6171 9.05486H28.5535C28.5237 9.05486 28.4951 9.06669 28.474 9.08777C28.4529 9.10885 28.4411 9.13744 28.4411 9.16725V14.7783C28.4411 14.793 28.444 14.8076 28.4496 14.8213C28.4553 14.8349 28.4636 14.8473 28.474 14.8577C28.4844 14.8682 28.4968 14.8765 28.5105 14.8821C28.5241 14.8877 28.5387 14.8907 28.5535 14.8907H31.3335C31.3634 14.8907 31.3919 14.9025 31.413 14.9236C31.4341 14.9447 31.4459 14.9732 31.4459 15.003V21.3223C31.4459 21.3521 31.4341 21.3807 31.413 21.4018C31.3919 21.4229 31.3634 21.4347 31.3335 21.4347H20.8177C20.7878 21.4347 20.7593 21.4229 20.7382 21.4018C20.7171 21.3807 20.7053 21.3521 20.7053 21.3223V14.9967C20.7053 14.9669 20.7171 14.9383 20.7382 14.9172C20.7593 14.8961 20.7878 14.8843 20.8177 14.8843H23.6974C23.7272 14.8843 23.7558 14.8725 23.7769 14.8514C23.7979 14.8303 23.8098 14.8017 23.8098 14.7719V9.15876C23.8098 9.12895 23.7979 9.10037 23.7769 9.07929C23.7558 9.05821 23.7272 9.04637 23.6974 9.04637H9.62742C9.59761 9.04637 9.56902 9.05821 9.54795 9.07929C9.52687 9.10037 9.51503 9.12895 9.51503 9.15876V14.8122C9.51503 14.842 9.52687 14.8706 9.54795 14.8917C9.56902 14.9127 9.59761 14.9246 9.62742 14.9246H12.7256C12.7554 14.9246 12.784 14.9364 12.805 14.9575C12.8261 14.9786 12.838 15.0072 12.838 15.037V34.2726C12.838 34.3024 12.8261 34.331 12.805 34.3521C12.784 34.3732 12.7554 34.385 12.7256 34.385H9.62954C9.59973 34.385 9.57115 34.3969 9.55007 34.4179C9.52899 34.439 9.51715 34.4676 9.51715 34.4974V39.9939C9.51715 40.0237 9.52899 40.0523 9.55007 40.0734C9.57115 40.0945 9.59973 40.1063 9.62954 40.1063H23.7122C23.742 40.1063 23.7706 40.0945 23.7917 40.0734C23.8128 40.0523 23.8246 40.0237 23.8246 39.9939V34.5144C23.8246 34.4846 23.8128 34.456 23.7917 34.4349C23.7706 34.4138 23.742 34.402 23.7122 34.402H20.8198C20.805 34.402 20.7904 34.3991 20.7768 34.3934C20.7631 34.3878 20.7507 34.3795 20.7403 34.3691C20.7299 34.3586 20.7216 34.3463 20.7159 34.3326C20.7103 34.319 20.7074 34.3044 20.7074 34.2896V27.7837ZM109.235 20.1963H113.02C113.038 20.1963 113.055 20.1892 113.068 20.1764C113.081 20.1637 113.088 20.1465 113.088 20.1285V13.0988C113.088 13.0616 113.08 13.0248 113.064 12.9911C113.048 12.9574 113.025 12.9276 112.997 12.9037C110.59 10.8722 107.915 9.63164 104.97 9.18208C100.084 8.43777 94.7491 10.0006 91.6764 14.0658C89.905 16.4125 88.8285 19.2018 88.4468 22.4335C88.3987 22.835 88.3535 23.4323 88.3111 24.2254C88.1895 26.4477 88.4631 28.6489 89.1317 30.8288C90.5504 35.4644 94.5095 39.4595 99.3062 40.3247C104.321 41.2267 108.972 40.1353 113.26 37.0506C113.29 37.029 113.314 37.0004 113.331 36.9672C113.348 36.934 113.357 36.8971 113.357 36.8597V25.3281C113.357 25.2988 113.345 25.2708 113.325 25.2501C113.304 25.2294 113.276 25.2178 113.247 25.2178H102.769C102.73 25.2178 102.692 25.2335 102.664 25.2613C102.636 25.2891 102.621 25.3269 102.621 25.3663V28.5789C102.621 28.5948 102.624 28.6105 102.63 28.6252C102.636 28.6398 102.644 28.6532 102.655 28.6644C102.666 28.6756 102.68 28.6845 102.694 28.6906C102.708 28.6967 102.724 28.6998 102.739 28.6998H108.951C108.999 28.6998 109.045 28.719 109.08 28.7532C109.114 28.7874 109.133 28.8338 109.133 28.8822V34.8261C109.133 34.8384 109.13 34.8505 109.124 34.8613C109.118 34.872 109.109 34.8811 109.099 34.8876C106.69 36.43 104.143 37.0605 101.456 36.7792C100.485 36.6774 99.5918 36.4512 98.7761 36.1006C96.1635 34.9745 94.1405 32.3684 93.4365 29.6689C91.6573 22.8343 93.6273 12.9779 102.519 12.874C104.968 12.8464 107.284 13.4805 109.069 15.0624C109.092 15.0824 109.11 15.107 109.122 15.1344C109.135 15.1618 109.141 15.1915 109.141 15.2215V20.103C109.141 20.1153 109.144 20.1274 109.149 20.1387C109.153 20.15 109.16 20.1603 109.169 20.169C109.177 20.1776 109.188 20.1845 109.199 20.1892C109.21 20.1939 109.222 20.1963 109.235 20.1963ZM172.519 9.79705C171.758 9.71506 171.095 9.83239 170.53 10.1491C168.53 11.2687 168.632 14.8376 170.644 15.9128C172.067 16.6741 173.753 16.6847 175.068 15.7262C176.179 14.9161 176.612 13.7116 176.368 12.1127C176.291 11.6207 176.098 11.215 175.789 10.8955C175.769 10.8748 175.745 10.8586 175.718 10.8478C175.692 10.8371 175.663 10.832 175.635 10.833C175.606 10.834 175.578 10.841 175.552 10.8536C175.527 10.8662 175.504 10.8841 175.485 10.9061C174.921 11.579 174.246 12.1488 173.46 12.6153C173.418 12.642 173.372 12.6627 173.325 12.6768C172.951 12.7871 172.618 12.6478 172.324 12.259C172.276 12.1979 172.245 12.1257 172.233 12.0491C172.119 11.396 172.251 10.7131 172.627 10.0006C172.638 9.98058 172.644 9.95811 172.644 9.93525C172.644 9.91238 172.639 9.88983 172.628 9.86964C172.617 9.84944 172.602 9.83223 172.582 9.81956C172.563 9.80689 172.542 9.79916 172.519 9.79705ZM157.077 12.9567C157.077 12.982 157.087 13.0063 157.105 13.0242C157.123 13.0421 157.147 13.0521 157.172 13.0521H159.755C159.78 13.0521 159.805 13.0622 159.823 13.0801C159.84 13.098 159.851 13.1222 159.851 13.1475V36.811C159.851 36.8363 159.84 36.8605 159.823 36.8784C159.805 36.8963 159.78 36.9064 159.755 36.9064H157.215C157.189 36.9064 157.165 36.9164 157.147 36.9343C157.129 36.9522 157.119 36.9765 157.119 37.0018V40.013C157.119 40.0383 157.129 40.0626 157.147 40.0805C157.165 40.0984 157.189 40.1084 157.215 40.1084H166.819C166.844 40.1084 166.868 40.0984 166.886 40.0805C166.904 40.0626 166.914 40.0383 166.914 40.013V37.0167C166.914 36.9913 166.904 36.9671 166.886 36.9492C166.868 36.9313 166.844 36.9212 166.819 36.9212H164.554C164.529 36.9212 164.504 36.9112 164.486 36.8933C164.469 36.8754 164.459 36.8511 164.459 36.8258V9.95397C164.459 9.92867 164.448 9.90439 164.431 9.8865C164.413 9.8686 164.388 9.85855 164.363 9.85855H157.172C157.147 9.85855 157.123 9.8686 157.105 9.8865C157.087 9.90439 157.077 9.92867 157.077 9.95397V12.9567ZM175.89 10.043C176.476 10.2311 176.93 10.5817 177.254 11.0948C177.273 11.1251 177.304 11.1466 177.339 11.1545C177.374 11.1625 177.41 11.1563 177.441 11.1372L177.447 11.1351C177.477 11.1157 177.499 11.0862 177.508 11.0521C177.517 11.0181 177.514 10.9819 177.498 10.9506C177.17 10.2961 176.645 9.93772 175.924 9.87551C175.904 9.87521 175.884 9.882 175.869 9.89473C175.853 9.90745 175.842 9.9253 175.838 9.94519C175.834 9.96507 175.837 9.98574 175.847 10.0036C175.856 10.0215 175.872 10.0354 175.89 10.043ZM78.5628 37.1948C78.6031 37.6889 78.5671 38.359 78.5565 38.9994C78.5247 40.5453 77.7506 41.9427 76.3723 42.6722C73.6495 44.1142 70.1972 42.9882 67.9621 41.1157C67.9408 41.0976 67.9136 41.0878 67.8859 41.0882C67.8581 41.0886 67.8317 41.0991 67.8116 41.1178C66.6042 42.2036 65.4514 43.4109 64.3529 44.7398C64.3407 44.7542 64.3316 44.771 64.326 44.7892C64.3205 44.8073 64.3186 44.8264 64.3206 44.8454C64.3226 44.8643 64.3283 44.8828 64.3375 44.8996C64.3467 44.9164 64.3591 44.9313 64.3741 44.9433C68.1812 48.004 72.4846 49.0212 77.2841 47.9948C80.518 47.3035 83.1475 45.4798 84.4516 42.4199C85.0624 40.9892 85.3677 39.6716 85.3677 38.4671C85.372 35.3796 85.3755 30.5786 85.3783 24.0642C85.3783 24.0288 85.3924 23.9948 85.4174 23.9698C85.4425 23.9447 85.4765 23.9306 85.5119 23.9306H87.342C87.3932 23.9306 87.4422 23.9103 87.4784 23.8741C87.5146 23.8379 87.5349 23.7888 87.5349 23.7377V19.5729C87.5349 19.5335 87.5195 19.4957 87.4921 19.4679C87.4646 19.4401 87.4274 19.4244 87.3886 19.4244H78.8703C78.8354 19.4244 78.802 19.4383 78.7773 19.4629C78.7527 19.4876 78.7388 19.521 78.7388 19.5559V21.3351C78.7384 21.3489 78.7337 21.3624 78.7254 21.3735C78.7172 21.3847 78.7056 21.393 78.6925 21.3974C78.6793 21.4018 78.6651 21.402 78.6517 21.3981C78.6384 21.3941 78.6266 21.3862 78.618 21.3753C76.4635 18.4808 72.3771 18.3196 69.3278 19.5347C66.2296 20.7689 64.7494 23.7673 64.2617 26.9312C63.9139 29.1833 64.0454 31.3286 64.6561 33.3672C65.2541 35.3669 66.7704 37.6401 68.6704 38.6792C71.7219 40.3438 76.2663 40.2102 78.4716 37.1693C78.4778 37.1612 78.4863 37.1551 78.4959 37.1518C78.5056 37.1486 78.516 37.1483 78.5259 37.151C78.5357 37.1538 78.5445 37.1594 78.5511 37.1672C78.5577 37.175 78.5618 37.1846 78.5628 37.1948ZM121.137 19.8125C115.56 21.9797 114.19 28.8567 115.98 33.9482C117.217 37.462 120.3 39.9706 124.009 40.3947C129.378 41.0118 133.958 38.2423 135.339 32.9176C136.609 28.0212 135.118 22.4208 130.305 20.1009C127.356 18.6787 124.3 18.5826 121.137 19.8125ZM142.81 19.8337C137.235 22.0009 135.865 28.8779 137.657 33.9673C138.893 37.4811 141.976 39.9897 145.685 40.4138C151.054 41.0288 155.633 38.2593 157.013 32.9346C158.281 28.0382 156.791 22.4399 151.977 20.12C149.028 18.6978 145.972 18.6024 142.81 19.8337ZM185.056 22.1388V19.9312C185.056 19.8823 185.036 19.8354 185.002 19.8008C184.967 19.7662 184.92 19.7468 184.871 19.7468H178.249C178.228 19.7468 178.208 19.755 178.193 19.7697C178.178 19.7844 178.17 19.8044 178.17 19.8252V22.8301C178.17 22.8537 178.179 22.8763 178.196 22.893C178.213 22.9097 178.236 22.9191 178.259 22.9191H180.52C180.551 22.9191 180.58 22.9314 180.602 22.9533C180.624 22.9752 180.636 23.0048 180.636 23.0358V36.8152C180.636 36.8422 180.626 36.8681 180.607 36.8872C180.588 36.9063 180.563 36.917 180.537 36.917H178.263C178.219 36.917 178.176 36.9346 178.145 36.9661C178.114 36.9975 178.096 37.0401 178.096 37.0845V40.0173C178.096 40.0409 178.105 40.0635 178.123 40.0802C178.14 40.0969 178.163 40.1063 178.187 40.1063H187.643C187.658 40.1063 187.673 40.1034 187.687 40.0978C187.7 40.0921 187.713 40.0838 187.724 40.0734C187.734 40.063 187.743 40.0506 187.748 40.0369C187.754 40.0233 187.757 40.0087 187.757 39.9939V37.1206C187.757 37.0756 187.739 37.0324 187.708 37.0006C187.676 36.9688 187.633 36.9509 187.588 36.9509H185.382C185.365 36.9509 185.348 36.9475 185.332 36.9409C185.316 36.9343 185.301 36.9246 185.289 36.9124C185.277 36.9002 185.267 36.8857 185.261 36.8698C185.254 36.8538 185.251 36.8367 185.251 36.8194C185.242 34.8911 185.234 32.1337 185.225 28.5471C185.222 27.4684 185.282 26.7475 185.403 26.3841C185.611 25.7522 185.981 25.1309 186.512 24.5202C187.535 23.3432 189.307 22.8619 190.847 23.0273C193.873 23.3517 194.708 25.7395 194.704 28.439C194.697 32.2998 194.694 35.0961 194.696 36.8279C194.696 36.8504 194.687 36.872 194.671 36.8879C194.656 36.9038 194.635 36.9128 194.613 36.9128H192.503C192.472 36.9128 192.442 36.925 192.421 36.9469C192.399 36.9688 192.386 36.9984 192.386 37.0294V40.0236C192.386 40.045 192.395 40.0655 192.41 40.0806C192.425 40.0957 192.446 40.1042 192.467 40.1042H201.581C201.609 40.1042 201.635 40.0933 201.655 40.0738C201.674 40.0543 201.685 40.0279 201.685 40.0003V37.1481C201.685 37.0953 201.664 37.0446 201.627 37.0072C201.589 36.9698 201.539 36.9488 201.486 36.9488H199.352C199.314 36.9488 199.278 36.9336 199.25 36.9066C199.223 36.8795 199.208 36.8428 199.208 36.8046C199.201 32.5691 199.202 29.6738 199.21 28.1188C199.234 24.1597 198.036 20.5971 193.773 19.6195C190.756 18.9261 187.174 19.6004 185.179 22.1812C185.17 22.1931 185.158 22.2019 185.144 22.2063C185.13 22.2108 185.115 22.2106 185.101 22.2058C185.087 22.2011 185.076 22.192 185.067 22.1799C185.059 22.1678 185.055 22.1534 185.056 22.1388ZM56.2396 37.6359V39.9494C56.2396 39.9916 56.2564 40.032 56.2862 40.0619C56.316 40.0917 56.3565 40.1084 56.3987 40.1084H64.7431C64.7587 40.1084 64.7741 40.1054 64.7885 40.0996C64.8029 40.0937 64.816 40.0851 64.8271 40.0743C64.8381 40.0635 64.8468 40.0506 64.8528 40.0364C64.8588 40.0223 64.8618 40.0071 64.8618 39.9918V35.4496C64.8618 35.4203 64.85 35.3923 64.8289 35.3716C64.8078 35.3509 64.7793 35.3393 64.7495 35.3393H62.79C62.7484 35.3393 62.7085 35.3225 62.6791 35.2927C62.6497 35.2629 62.6331 35.2224 62.6331 35.1802V19.4753C62.6331 19.4556 62.6253 19.4368 62.6114 19.4228C62.5975 19.4089 62.5786 19.4011 62.5589 19.4011H54.0194C53.9907 19.4011 53.9632 19.4127 53.9429 19.4334C53.9226 19.4541 53.9112 19.4821 53.9112 19.5114V23.7271C53.9112 23.7502 53.9158 23.7731 53.9246 23.7944C53.9335 23.8158 53.9464 23.8352 53.9628 23.8515C53.9791 23.8679 53.9985 23.8808 54.0199 23.8897C54.0412 23.8985 54.0641 23.9031 54.0872 23.9031L55.6183 23.9137C55.6363 23.9135 55.6542 23.9173 55.6707 23.9246C55.6872 23.932 55.7019 23.9429 55.7139 23.9565C55.726 23.9702 55.735 23.9863 55.7405 24.0037C55.7459 24.0212 55.7476 24.0397 55.7455 24.0579C55.737 24.1568 55.7356 26.5036 55.7413 31.0982C55.7455 32.9197 54.963 34.7201 53.1033 35.2015C51.1269 35.7125 49.6955 34.1518 49.6001 32.2878C49.5803 31.9202 49.5768 27.6791 49.5895 19.5644C49.5895 19.5446 49.5856 19.525 49.5781 19.5068C49.5705 19.4885 49.5594 19.4719 49.5454 19.4579C49.5314 19.4439 49.5148 19.4328 49.4966 19.4253C49.4783 19.4177 49.4587 19.4138 49.439 19.4138H40.6725C40.6472 19.4138 40.6229 19.4241 40.6051 19.4424C40.5872 19.4607 40.5771 19.4855 40.5771 19.5114V23.7695C40.5771 23.7856 40.5803 23.8016 40.5865 23.8165C40.5926 23.8315 40.6017 23.845 40.6131 23.8564C40.6245 23.8679 40.6381 23.8769 40.653 23.8831C40.6679 23.8893 40.6839 23.8925 40.7001 23.8925H42.5471C42.5606 23.8925 42.5735 23.8978 42.5831 23.9074C42.5926 23.9169 42.598 23.9299 42.598 23.9434L42.6086 33.0448C42.6086 33.3294 42.6421 33.6134 42.7083 33.8909C42.7493 34.0761 42.8405 34.5384 42.9818 35.2778C43.3819 37.3828 44.4231 38.8927 46.1054 39.8073C47.7171 40.681 49.704 40.8591 51.5277 40.4859C53.3726 40.1056 54.9079 39.1436 56.1336 37.5998C56.1412 37.5902 56.1516 37.5831 56.1634 37.5796C56.1751 37.5761 56.1877 37.5764 56.1993 37.5803C56.211 37.5843 56.2211 37.5917 56.2283 37.6017C56.2355 37.6116 56.2395 37.6236 56.2396 37.6359ZM216.557 22.3063C214.644 19.5707 211.571 19.0597 208.407 19.6322C204.622 20.3193 202.266 23.1778 201.505 26.9482C201.102 28.9458 201.173 31.0275 201.719 33.1933C202.113 34.7597 202.731 36.0341 203.572 37.0167C206.316 40.2187 211.351 41.1327 214.886 38.5816C215.401 38.2105 215.751 37.7186 216.118 37.2011C216.129 37.185 216.145 37.1728 216.164 37.1665C216.183 37.1601 216.203 37.1598 216.222 37.1657C216.241 37.1716 216.257 37.1834 216.269 37.1993C216.281 37.2152 216.287 37.2344 216.287 37.2542C216.3 38.1759 216.228 39.1146 216.071 40.0703C215.784 41.8247 214.982 43.09 213.666 43.8661C210.5 45.7322 206.458 44.4302 204.088 41.8515C204.072 41.8344 204.051 41.8239 204.028 41.8223C204.006 41.8207 203.984 41.8282 203.967 41.8431C202.905 42.7549 201.923 43.729 201.019 44.7652C201.008 44.7784 200.999 44.7938 200.994 44.8104C200.988 44.8271 200.986 44.8447 200.988 44.8621C200.989 44.8796 200.994 44.8965 201.003 44.912C201.011 44.9274 201.022 44.9409 201.036 44.9518C204.153 47.5191 207.657 48.6147 211.548 48.2387C216.024 47.8061 219.39 45.4777 220.378 40.9524C220.613 39.8738 220.73 39.034 220.73 38.4332C220.724 32.5946 220.725 27.5208 220.732 23.2118C220.733 23.1947 220.74 23.1785 220.752 23.1666C220.764 23.1548 220.781 23.1481 220.798 23.1481H222.967C222.999 23.1481 223.029 23.1356 223.051 23.1134C223.073 23.0911 223.086 23.0609 223.086 23.0294V20.1624C223.086 20.1382 223.076 20.115 223.059 20.0979C223.042 20.0808 223.019 20.0712 222.995 20.0712H216.807C216.782 20.0712 216.757 20.0813 216.739 20.0991C216.721 20.117 216.711 20.1413 216.711 20.1666V22.2575C216.712 22.2757 216.706 22.2935 216.695 22.3082C216.685 22.3229 216.669 22.3338 216.652 22.3393C216.635 22.3447 216.616 22.3445 216.599 22.3385C216.582 22.3326 216.567 22.3213 216.557 22.3063ZM177.33 40.1127C177.347 40.1127 177.363 40.1095 177.377 40.1033C177.392 40.0971 177.406 40.0881 177.417 40.0767C177.429 40.0652 177.438 40.0517 177.444 40.0368C177.45 40.0218 177.453 40.0058 177.453 39.9897V37.0548C177.453 37.0222 177.44 36.9909 177.417 36.9679C177.394 36.9448 177.363 36.9318 177.33 36.9318H174.945C174.912 36.9318 174.881 36.9189 174.858 36.8958C174.835 36.8727 174.822 36.8415 174.822 36.8088V19.7468C174.822 19.7141 174.809 19.6828 174.786 19.6598C174.763 19.6367 174.731 19.6238 174.699 19.6238H167.733C167.7 19.6238 167.669 19.6367 167.646 19.6598C167.623 19.6828 167.61 19.7141 167.61 19.7468V22.7601C167.61 22.7927 167.623 22.824 167.646 22.847C167.669 22.8701 167.7 22.8831 167.733 22.8831H170.093C170.125 22.8831 170.157 22.896 170.18 22.9191C170.203 22.9422 170.216 22.9734 170.216 23.0061V36.794C170.216 36.8266 170.203 36.8579 170.18 36.881C170.157 36.904 170.125 36.917 170.093 36.917H167.658C167.626 36.917 167.595 36.9299 167.571 36.953C167.548 36.9761 167.535 37.0074 167.535 37.04V39.9897C167.535 40.0058 167.539 40.0218 167.545 40.0368C167.551 40.0517 167.56 40.0652 167.571 40.0767C167.583 40.0881 167.596 40.0971 167.611 40.1033C167.626 40.1095 167.642 40.1127 167.658 40.1127H177.33ZM100.487 19.9673C100.507 19.9645 100.526 19.9588 100.543 19.9503C100.55 19.9467 100.557 19.94 100.56 19.9317C100.564 19.9234 100.564 19.9141 100.561 19.9059C100.558 19.8978 100.552 19.8914 100.544 19.8882C100.536 19.885 100.527 19.8852 100.519 19.8888C100.501 19.8973 100.484 19.9093 100.468 19.9249C100.465 19.9287 100.462 19.9337 100.461 19.939C100.46 19.9443 100.461 19.9498 100.463 19.9545C100.465 19.9593 100.468 19.9631 100.473 19.9654C100.477 19.9677 100.482 19.9683 100.487 19.9673ZM224.711 35.7801C224.138 36.152 223.74 36.7408 223.603 37.417C223.467 38.0931 223.603 38.8013 223.983 39.3857C224.17 39.6751 224.412 39.9254 224.695 40.1223C224.977 40.3191 225.293 40.4588 225.627 40.5332C225.96 40.6076 226.304 40.6153 226.637 40.556C226.971 40.4966 227.289 40.3713 227.573 40.1871C228.145 39.8153 228.544 39.2265 228.68 38.5503C228.817 37.8741 228.68 37.1659 228.301 36.5815C228.113 36.2922 227.871 36.0419 227.589 35.845C227.307 35.6481 226.99 35.5085 226.656 35.4341C226.323 35.3597 225.98 35.3519 225.646 35.4113C225.312 35.4707 224.994 35.596 224.711 35.7801Z"></path>
<path fill="black" d="M20.7074 27.7837V34.2896C20.7074 34.3044 20.7103 34.319 20.7159 34.3326C20.7216 34.3463 20.7299 34.3586 20.7403 34.3691C20.7507 34.3795 20.7631 34.3878 20.7767 34.3934C20.7904 34.3991 20.805 34.402 20.8198 34.402H23.7122C23.742 34.402 23.7706 34.4138 23.7917 34.4349C23.8128 34.456 23.8246 34.4846 23.8246 34.5144V39.9939C23.8246 40.0237 23.8128 40.0523 23.7917 40.0734C23.7706 40.0945 23.742 40.1063 23.7122 40.1063H9.62953C9.59972 40.1063 9.57113 40.0945 9.55006 40.0734C9.52898 40.0523 9.51714 40.0237 9.51714 39.9939V34.4974C9.51714 34.4676 9.52898 34.439 9.55006 34.4179C9.57113 34.3969 9.59972 34.385 9.62953 34.385H12.7256C12.7554 34.385 12.7839 34.3732 12.805 34.3521C12.8261 34.331 12.8379 34.3024 12.8379 34.2726V15.037C12.8379 15.0072 12.8261 14.9786 12.805 14.9575C12.7839 14.9364 12.7554 14.9246 12.7256 14.9246H9.6274C9.5976 14.9246 9.56901 14.9127 9.54793 14.8917C9.52686 14.8706 9.51501 14.842 9.51501 14.8122V9.15876C9.51501 9.12895 9.52686 9.10037 9.54793 9.07929C9.56901 9.05821 9.5976 9.04637 9.6274 9.04637H23.6974C23.7272 9.04637 23.7558 9.05821 23.7768 9.07929C23.7979 9.10037 23.8098 9.12895 23.8098 9.15876V14.7719C23.8098 14.8017 23.7979 14.8303 23.7768 14.8514C23.7558 14.8724 23.7272 14.8843 23.6974 14.8843H20.8176C20.7878 14.8843 20.7592 14.8961 20.7382 14.9172C20.7171 14.9383 20.7053 14.9669 20.7053 14.9967V21.3223C20.7053 21.3521 20.7171 21.3807 20.7382 21.4018C20.7592 21.4229 20.7878 21.4347 20.8176 21.4347H31.3335C31.3633 21.4347 31.3919 21.4229 31.413 21.4018C31.4341 21.3807 31.4459 21.3521 31.4459 21.3223V15.003C31.4459 14.9732 31.4341 14.9447 31.413 14.9236C31.3919 14.9025 31.3633 14.8907 31.3335 14.8907H28.5535C28.5387 14.8907 28.5241 14.8877 28.5105 14.8821C28.4968 14.8765 28.4844 14.8682 28.474 14.8577C28.4636 14.8473 28.4553 14.8349 28.4496 14.8213C28.444 14.8076 28.4411 14.793 28.4411 14.7783V9.16725C28.4411 9.13744 28.4529 9.10885 28.474 9.08777C28.4951 9.06669 28.5237 9.05486 28.5535 9.05486H42.6171C42.6469 9.05486 42.6755 9.06669 42.6965 9.08777C42.7176 9.10885 42.7295 9.13744 42.7295 9.16725V14.7846C42.7295 14.8144 42.7176 14.843 42.6965 14.8641C42.6755 14.8852 42.6469 14.897 42.6171 14.897H39.3874C39.3576 14.897 39.3291 14.9089 39.308 14.9299C39.2869 14.951 39.2751 14.9796 39.2751 15.0094V34.2938C39.2751 34.3237 39.2869 34.3522 39.308 34.3733C39.3291 34.3944 39.3576 34.4062 39.3874 34.4062H42.2248C42.2546 34.4062 42.2832 34.4181 42.3042 34.4392C42.3253 34.4602 42.3372 34.4888 42.3372 34.5186V39.9918C42.3372 40.0216 42.3253 40.0502 42.3042 40.0713C42.2832 40.0924 42.2546 40.1042 42.2248 40.1042H28.5301C28.5003 40.1042 28.4717 40.0924 28.4507 40.0713C28.4296 40.0502 28.4178 40.0216 28.4178 39.9918V34.525C28.4178 34.4952 28.4296 34.4666 28.4507 34.4455C28.4717 34.4244 28.5003 34.4126 28.5301 34.4126H31.3547C31.3845 34.4126 31.4131 34.4008 31.4342 34.3797C31.4553 34.3586 31.4671 34.33 31.4671 34.3002V27.7837C31.4671 27.7539 31.4553 27.7253 31.4342 27.7042C31.4131 27.6832 31.3845 27.6713 31.3547 27.6713H20.8198C20.79 27.6713 20.7614 27.6832 20.7403 27.7042C20.7192 27.7253 20.7074 27.7539 20.7074 27.7837Z"></path>
<path fill="black" d="M109.235 20.1963C109.222 20.1963 109.21 20.1939 109.199 20.1892C109.188 20.1845 109.177 20.1777 109.169 20.169C109.16 20.1603 109.153 20.15 109.148 20.1387C109.144 20.1274 109.141 20.1153 109.141 20.103V15.2215C109.141 15.1915 109.135 15.1618 109.122 15.1344C109.11 15.107 109.092 15.0825 109.069 15.0624C107.284 13.4805 104.968 12.8464 102.519 12.874C93.6273 12.9779 91.6573 22.8343 93.4365 29.6689C94.1405 32.3684 96.1635 34.9746 98.776 36.1006C99.5918 36.4512 100.485 36.6774 101.456 36.7792C104.142 37.0605 106.69 36.43 109.099 34.8876C109.109 34.8811 109.118 34.872 109.124 34.8613C109.13 34.8505 109.133 34.8384 109.133 34.8261V28.8822C109.133 28.8338 109.114 28.7874 109.079 28.7532C109.045 28.719 108.999 28.6998 108.951 28.6998H102.739C102.724 28.6998 102.708 28.6967 102.694 28.6906C102.68 28.6845 102.666 28.6756 102.655 28.6644C102.644 28.6532 102.636 28.6398 102.63 28.6252C102.624 28.6105 102.621 28.5948 102.621 28.5789V25.3663C102.621 25.3269 102.636 25.2891 102.664 25.2613C102.692 25.2335 102.73 25.2178 102.769 25.2178H113.247C113.276 25.2178 113.304 25.2294 113.325 25.2501C113.345 25.2708 113.357 25.2988 113.357 25.3281V36.8597C113.357 36.8972 113.348 36.934 113.331 36.9672C113.314 37.0004 113.29 37.029 113.26 37.0506C108.972 40.1353 104.321 41.2267 99.3062 40.3247C94.5095 39.4596 90.5504 35.4644 89.1317 30.8288C88.463 28.6489 88.1895 26.4478 88.311 24.2254C88.3535 23.4323 88.3987 22.835 88.4468 22.4335C88.8285 19.2018 89.905 16.4125 91.6764 14.0658C94.7491 10.0006 100.084 8.43777 104.97 9.18209C107.915 9.63165 110.59 10.8722 112.997 12.9037C113.025 12.9276 113.048 12.9574 113.064 12.9911C113.08 13.0248 113.088 13.0616 113.088 13.0988V20.1285C113.088 20.1465 113.081 20.1637 113.068 20.1764C113.055 20.1892 113.038 20.1963 113.02 20.1963H109.235Z"></path>
<path fill="black" d="M157.077 12.9567V9.95397C157.077 9.92866 157.087 9.90439 157.105 9.88649C157.123 9.86859 157.147 9.85854 157.172 9.85854H164.363C164.388 9.85854 164.413 9.86859 164.431 9.88649C164.448 9.90439 164.459 9.92866 164.459 9.95397V36.8258C164.459 36.8511 164.469 36.8754 164.486 36.8933C164.504 36.9112 164.529 36.9212 164.554 36.9212H166.819C166.844 36.9212 166.868 36.9313 166.886 36.9492C166.904 36.9671 166.914 36.9913 166.914 37.0166V40.013C166.914 40.0383 166.904 40.0626 166.886 40.0805C166.868 40.0984 166.844 40.1084 166.819 40.1084H157.215C157.189 40.1084 157.165 40.0984 157.147 40.0805C157.129 40.0626 157.119 40.0383 157.119 40.013V37.0018C157.119 36.9765 157.129 36.9522 157.147 36.9343C157.165 36.9164 157.189 36.9064 157.215 36.9064H159.755C159.78 36.9064 159.805 36.8963 159.823 36.8784C159.841 36.8605 159.851 36.8363 159.851 36.811V13.1475C159.851 13.1222 159.841 13.098 159.823 13.0801C159.805 13.0622 159.78 13.0521 159.755 13.0521H157.172C157.147 13.0521 157.123 13.0421 157.105 13.0242C157.087 13.0063 157.077 12.982 157.077 12.9567Z"></path>
<path fill="black" d="M78.5628 37.1948C78.5618 37.1846 78.5577 37.175 78.5511 37.1672C78.5445 37.1594 78.5357 37.1538 78.5259 37.151C78.5161 37.1483 78.5056 37.1486 78.496 37.1518C78.4863 37.1551 78.4778 37.1612 78.4716 37.1693C76.2663 40.2102 71.7219 40.3438 68.6704 38.6792C66.7704 37.6401 65.2542 35.3668 64.6562 33.3671C64.0454 31.3286 63.9139 29.1833 64.2617 26.9312C64.7495 23.7673 66.2296 20.7688 69.3278 19.5347C72.3771 18.3196 76.4635 18.4808 78.618 21.3753C78.6266 21.3862 78.6384 21.3941 78.6517 21.3981C78.6651 21.402 78.6793 21.4018 78.6925 21.3974C78.7056 21.393 78.7172 21.3847 78.7255 21.3735C78.7337 21.3624 78.7384 21.3489 78.7388 21.335V19.5559C78.7388 19.521 78.7527 19.4876 78.7773 19.4629C78.802 19.4383 78.8354 19.4244 78.8703 19.4244H87.3886C87.4274 19.4244 87.4647 19.44 87.4921 19.4679C87.5195 19.4957 87.5349 19.5335 87.5349 19.5728V23.7376C87.5349 23.7888 87.5146 23.8379 87.4784 23.8741C87.4422 23.9103 87.3932 23.9306 87.342 23.9306H85.5119C85.4765 23.9306 85.4425 23.9447 85.4175 23.9697C85.3924 23.9948 85.3783 24.0288 85.3783 24.0642C85.3755 30.5786 85.372 35.3796 85.3677 38.4671C85.3677 39.6716 85.0624 40.9892 84.4516 42.4198C83.1475 45.4798 80.518 47.3035 77.2841 47.9948C72.4846 49.0212 68.1812 48.004 64.3741 44.9433C64.3592 44.9313 64.3467 44.9164 64.3375 44.8996C64.3283 44.8828 64.3226 44.8643 64.3206 44.8454C64.3186 44.8264 64.3205 44.8073 64.326 44.7891C64.3316 44.771 64.3407 44.7542 64.3529 44.7397C65.4514 43.4109 66.6043 42.2035 67.8116 41.1178C67.8317 41.0991 67.8581 41.0886 67.8859 41.0882C67.9136 41.0878 67.9408 41.0976 67.9621 41.1157C70.1972 42.9882 73.6495 44.1142 76.3723 42.6722C77.7507 41.9427 78.5247 40.5453 78.5565 38.9994C78.5671 38.359 78.6031 37.6889 78.5628 37.1948ZM71.1239 29.1811C71.109 31.0006 71.4632 33.0151 73.1363 34.0478C73.6226 34.349 74.1471 34.5016 74.7098 34.5059C75.271 34.5101 75.7976 34.3666 76.2896 34.0754C77.9797 33.0703 78.3677 31.0621 78.3826 29.2426C78.3995 27.4232 78.0454 25.4065 76.3723 24.3738C75.886 24.0741 75.3615 23.9214 74.7988 23.9158C74.2376 23.9115 73.711 24.055 73.219 24.3462C71.5268 25.3514 71.1409 27.3596 71.1239 29.1811Z"></path>
<path fill="black" d="M115.98 33.9482C114.19 28.8567 115.56 21.9797 121.137 19.8125C124.3 18.5826 127.356 18.6787 130.305 20.1009C135.118 22.4208 136.609 28.0212 135.339 32.9176C133.958 38.2423 129.378 41.0118 124.009 40.3947C120.3 39.9706 117.217 37.462 115.98 33.9482ZM119.797 29.6647C119.797 33.1042 121.521 36.8173 125.525 36.8194C129.531 36.8216 131.257 33.1085 131.259 29.671C131.261 26.2315 129.537 22.5183 125.531 22.5162C121.526 22.5141 119.799 26.2272 119.797 29.6647Z"></path>
<path fill="black" d="M142.81 19.8337C145.972 18.6024 149.028 18.6978 151.977 20.12C156.791 22.4399 158.281 28.0382 157.013 32.9346C155.633 38.2593 151.054 41.0288 145.685 40.4138C141.976 39.9897 138.893 37.4811 137.657 33.9673C135.865 28.8779 137.235 22.0009 142.81 19.8337ZM141.436 29.7304C141.459 33.17 143.21 36.8725 147.218 36.8449C151.226 36.8173 152.925 33.0894 152.901 29.6498C152.876 26.2102 151.124 22.5077 147.119 22.5353C143.111 22.5629 141.41 26.2908 141.436 29.7304Z"></path>
<path fill="black" d="M185.056 22.1387C185.055 22.1534 185.059 22.1678 185.067 22.1799C185.076 22.192 185.087 22.2011 185.101 22.2058C185.115 22.2106 185.13 22.2108 185.144 22.2063C185.158 22.2019 185.17 22.1931 185.179 22.1812C187.174 19.6004 190.756 18.9261 193.773 19.6195C198.036 20.5971 199.234 24.1597 199.21 28.1188C199.202 29.6738 199.201 32.5691 199.208 36.8046C199.208 36.8428 199.223 36.8795 199.251 36.9066C199.278 36.9336 199.314 36.9488 199.352 36.9488H201.486C201.539 36.9488 201.589 36.9698 201.627 37.0072C201.664 37.0446 201.685 37.0953 201.685 37.1481V40.0003C201.685 40.0278 201.674 40.0543 201.655 40.0738C201.635 40.0932 201.609 40.1042 201.581 40.1042H192.467C192.446 40.1042 192.425 40.0957 192.41 40.0806C192.395 40.0655 192.386 40.045 192.386 40.0236V37.0294C192.386 36.9984 192.399 36.9688 192.421 36.9469C192.442 36.925 192.472 36.9127 192.503 36.9127H194.613C194.635 36.9127 194.656 36.9038 194.671 36.8879C194.687 36.872 194.696 36.8504 194.696 36.8279C194.694 35.0961 194.697 32.2998 194.704 28.439C194.708 25.7395 193.873 23.3517 190.847 23.0273C189.307 22.8619 187.535 23.3432 186.512 24.5201C185.981 25.1309 185.611 25.7522 185.403 26.3841C185.282 26.7475 185.222 27.4684 185.225 28.5471C185.234 32.1337 185.242 34.8911 185.251 36.8194C185.251 36.8367 185.254 36.8538 185.261 36.8697C185.267 36.8857 185.277 36.9002 185.289 36.9124C185.301 36.9246 185.316 36.9343 185.332 36.9409C185.348 36.9475 185.365 36.9509 185.382 36.9509H187.588C187.633 36.9509 187.676 36.9688 187.708 37.0006C187.739 37.0324 187.757 37.0756 187.757 37.1206V39.9939C187.757 40.0087 187.754 40.0233 187.749 40.0369C187.743 40.0506 187.734 40.063 187.724 40.0734C187.713 40.0838 187.7 40.0921 187.687 40.0978C187.673 40.1034 187.658 40.1063 187.643 40.1063H178.187C178.163 40.1063 178.14 40.0969 178.123 40.0802C178.106 40.0635 178.096 40.0409 178.096 40.0173V37.0845C178.096 37.0401 178.114 36.9975 178.145 36.966C178.176 36.9346 178.219 36.917 178.263 36.917H180.537C180.563 36.917 180.588 36.9063 180.607 36.8872C180.626 36.8681 180.636 36.8422 180.636 36.8152V23.0357C180.636 23.0048 180.624 22.9752 180.602 22.9533C180.58 22.9314 180.551 22.9191 180.52 22.9191H178.259C178.236 22.9191 178.213 22.9097 178.196 22.893C178.18 22.8763 178.17 22.8537 178.17 22.8301V19.8252C178.17 19.8044 178.178 19.7844 178.193 19.7697C178.208 19.755 178.228 19.7467 178.249 19.7467H184.871C184.92 19.7467 184.967 19.7662 185.002 19.8008C185.036 19.8354 185.056 19.8823 185.056 19.9312V22.1387Z"></path>
<path fill="black" d="M56.2396 37.6359C56.2395 37.6236 56.2355 37.6116 56.2283 37.6017C56.2211 37.5917 56.211 37.5843 56.1993 37.5803C56.1877 37.5764 56.1751 37.5761 56.1634 37.5796C56.1516 37.5831 56.1412 37.5901 56.1336 37.5998C54.9079 39.1436 53.3726 40.1056 51.5277 40.4859C49.704 40.8591 47.717 40.681 46.1054 39.8073C44.4231 38.8926 43.3819 37.3828 42.9818 35.2778C42.8404 34.5384 42.7493 34.0761 42.7083 33.8909C42.642 33.6134 42.6086 33.3294 42.6086 33.0448L42.598 23.9434C42.598 23.9299 42.5926 23.9169 42.5831 23.9074C42.5735 23.8978 42.5606 23.8925 42.5471 23.8925H40.7001C40.6839 23.8925 40.6679 23.8893 40.653 23.8831C40.6381 23.8769 40.6245 23.8679 40.6131 23.8564C40.6017 23.845 40.5926 23.8315 40.5865 23.8165C40.5803 23.8016 40.5771 23.7856 40.5771 23.7695V19.5114C40.5771 19.4855 40.5871 19.4607 40.605 19.4424C40.6229 19.4241 40.6472 19.4138 40.6725 19.4138H49.4389C49.4587 19.4138 49.4783 19.4177 49.4966 19.4253C49.5148 19.4328 49.5314 19.4439 49.5454 19.4579C49.5594 19.4719 49.5705 19.4885 49.578 19.5068C49.5856 19.525 49.5895 19.5446 49.5895 19.5644C49.5768 27.6791 49.5803 31.9202 49.6001 32.2878C49.6955 34.1518 51.1269 35.7125 53.1033 35.2014C54.963 34.7201 55.7455 32.9197 55.7413 31.0981C55.7356 26.5036 55.737 24.1568 55.7455 24.0579C55.7476 24.0396 55.7459 24.0212 55.7404 24.0037C55.735 23.9863 55.726 23.9702 55.7139 23.9565C55.7019 23.9429 55.6871 23.932 55.6707 23.9246C55.6542 23.9172 55.6363 23.9135 55.6183 23.9137L54.0872 23.9031C54.0641 23.9031 54.0412 23.8985 54.0199 23.8897C53.9985 23.8808 53.9791 23.8679 53.9628 23.8515C53.9464 23.8352 53.9335 23.8158 53.9246 23.7944C53.9158 23.7731 53.9112 23.7502 53.9112 23.7271V19.5114C53.9112 19.4821 53.9226 19.4541 53.9429 19.4334C53.9632 19.4127 53.9907 19.4011 54.0194 19.4011H62.5589C62.5786 19.4011 62.5974 19.4089 62.6114 19.4228C62.6253 19.4367 62.6331 19.4556 62.6331 19.4753V35.1802C62.6331 35.2224 62.6496 35.2629 62.6791 35.2927C62.7085 35.3225 62.7484 35.3393 62.79 35.3393H64.7494C64.7792 35.3393 64.8078 35.3509 64.8289 35.3716C64.85 35.3923 64.8618 35.4203 64.8618 35.4496V39.9918C64.8618 40.0071 64.8588 40.0223 64.8528 40.0364C64.8468 40.0506 64.8381 40.0634 64.827 40.0743C64.816 40.0851 64.8029 40.0937 64.7885 40.0996C64.7741 40.1054 64.7587 40.1084 64.7431 40.1084H56.3986C56.3565 40.1084 56.316 40.0917 56.2862 40.0618C56.2563 40.032 56.2396 39.9916 56.2396 39.9494V37.6359Z"></path>
<path fill="black" d="M216.557 22.3063C216.567 22.3213 216.582 22.3326 216.599 22.3385C216.616 22.3445 216.635 22.3447 216.652 22.3392C216.669 22.3338 216.685 22.3229 216.695 22.3082C216.706 22.2934 216.712 22.2757 216.711 22.2575V20.1666C216.711 20.1413 216.721 20.117 216.739 20.0991C216.757 20.0812 216.782 20.0712 216.807 20.0712H222.995C223.019 20.0712 223.042 20.0808 223.059 20.0979C223.076 20.115 223.086 20.1382 223.086 20.1624V23.0294C223.086 23.0609 223.073 23.0911 223.051 23.1133C223.029 23.1356 222.999 23.1481 222.967 23.1481H220.798C220.781 23.1481 220.764 23.1548 220.752 23.1666C220.74 23.1785 220.733 23.1947 220.732 23.2117C220.725 27.5207 220.724 32.5946 220.73 38.4332C220.73 39.034 220.613 39.8738 220.378 40.9524C219.39 45.4777 216.024 47.8061 211.548 48.2387C207.657 48.6147 204.153 47.5191 201.036 44.9518C201.022 44.9409 201.011 44.9274 201.003 44.912C200.994 44.8965 200.989 44.8796 200.988 44.8621C200.986 44.8447 200.988 44.8271 200.994 44.8104C200.999 44.7938 201.008 44.7784 201.019 44.7652C201.923 43.7289 202.905 42.7549 203.967 41.8431C203.984 41.8282 204.006 41.8207 204.028 41.8223C204.051 41.8239 204.072 41.8344 204.088 41.8515C206.458 44.4301 210.5 45.7322 213.666 43.8661C214.982 43.0899 215.784 41.8247 216.071 40.0703C216.228 39.1146 216.3 38.1759 216.287 37.2541C216.287 37.2344 216.281 37.2151 216.269 37.1993C216.257 37.1834 216.241 37.1716 216.222 37.1657C216.203 37.1598 216.183 37.1601 216.164 37.1664C216.145 37.1728 216.129 37.1849 216.118 37.2011C215.751 37.7185 215.401 38.2105 214.886 38.5816C211.351 41.1327 206.316 40.2187 203.572 37.0166C202.731 36.0341 202.113 34.7597 201.719 33.1933C201.173 31.0275 201.102 28.9458 201.505 26.9482C202.266 23.1778 204.622 20.3193 208.407 19.6322C211.571 19.0597 214.644 19.5707 216.557 22.3063ZM205.81 29.5904C205.795 32.2008 206.694 35.1845 209.47 36.0369C211.06 36.5261 212.508 36.3649 213.815 35.5535C215.744 34.3511 216.211 31.7449 216.224 29.654C216.239 27.5632 215.804 24.9549 213.887 23.7271C212.59 22.9 211.144 22.7205 209.548 23.1884C206.764 24.0091 205.827 26.98 205.81 29.5904Z"></path>
<path fill="black" d="M177.33 40.1127H167.658C167.642 40.1127 167.626 40.1095 167.611 40.1033C167.596 40.0971 167.583 40.0881 167.571 40.0767C167.56 40.0652 167.551 40.0517 167.545 40.0368C167.539 40.0218 167.535 40.0058 167.535 39.9897V37.04C167.535 37.0074 167.548 36.9761 167.571 36.953C167.595 36.9299 167.626 36.917 167.658 36.917H170.093C170.125 36.917 170.157 36.904 170.18 36.881C170.203 36.8579 170.216 36.8266 170.216 36.794V23.0061C170.216 22.9734 170.203 22.9422 170.18 22.9191C170.157 22.896 170.125 22.8831 170.093 22.8831H167.733C167.7 22.8831 167.669 22.8701 167.646 22.847C167.623 22.824 167.61 22.7927 167.61 22.7601V19.7468C167.61 19.7141 167.623 19.6828 167.646 19.6598C167.669 19.6367 167.7 19.6238 167.733 19.6238H174.699C174.731 19.6238 174.763 19.6367 174.786 19.6598C174.809 19.6828 174.822 19.7141 174.822 19.7468V36.8088C174.822 36.8415 174.835 36.8727 174.858 36.8958C174.881 36.9189 174.912 36.9318 174.945 36.9318H177.33C177.363 36.9318 177.394 36.9448 177.417 36.9679C177.44 36.9909 177.453 37.0222 177.453 37.0548V39.9897C177.453 40.0058 177.45 40.0218 177.444 40.0368C177.438 40.0517 177.429 40.0652 177.417 40.0767C177.406 40.0881 177.392 40.0971 177.377 40.1033C177.363 40.1095 177.347 40.1127 177.33 40.1127Z"></path>
<path fill="black" d="M100.468 19.9249C100.484 19.9093 100.501 19.8973 100.519 19.8888C100.527 19.8852 100.536 19.885 100.544 19.8882C100.552 19.8914 100.558 19.8978 100.561 19.9059C100.564 19.9141 100.564 19.9233 100.56 19.9317C100.557 19.94 100.55 19.9467 100.543 19.9503C100.526 19.9588 100.507 19.9645 100.487 19.9673C100.482 19.9683 100.477 19.9677 100.473 19.9654C100.468 19.9631 100.465 19.9593 100.463 19.9545C100.461 19.9498 100.46 19.9443 100.461 19.939C100.462 19.9337 100.465 19.9287 100.468 19.9249Z"></path>
<path fill="#FCE566" d="M125.531 22.5162C129.537 22.5183 131.261 26.2314 131.259 29.671C131.257 33.1084 129.531 36.8215 125.525 36.8194C121.521 36.8173 119.797 33.1042 119.797 29.6646C119.799 26.2272 121.525 22.5141 125.531 22.5162Z"></path>
<path fill="#FCE566" d="M141.436 29.7304C141.41 26.2908 143.111 22.5629 147.119 22.5353C151.124 22.5077 152.876 26.2102 152.901 29.6498C152.925 33.0894 151.226 36.8173 147.218 36.8449C143.21 36.8725 141.459 33.1699 141.436 29.7304Z"></path>
<path fill="#FCE566" d="M216.224 29.654C216.211 31.7449 215.744 34.3511 213.815 35.5535C212.508 36.3649 211.06 36.5261 209.47 36.0369C206.694 35.1845 205.795 32.2008 205.81 29.5904C205.827 26.98 206.764 24.0091 209.548 23.1884C211.144 22.7205 212.59 22.9 213.887 23.7271C215.804 24.9549 216.239 27.5632 216.224 29.654Z"></path>
<path fill="#FCE566" d="M74.7988 23.9158C75.3615 23.9214 75.886 24.0741 76.3723 24.3738C78.0454 25.4065 78.3995 27.4232 78.3826 29.2426C78.3677 31.0621 77.9797 33.0703 76.2896 34.0754C75.7976 34.3666 75.271 34.5101 74.7098 34.5059C74.1471 34.5017 73.6226 34.349 73.1363 34.0478C71.4632 33.0151 71.109 31.0006 71.1239 29.1811C71.1408 27.3596 71.5268 25.3514 73.219 24.3463C73.711 24.055 74.2376 23.9115 74.7988 23.9158Z"></path>
<path fill="black" d="M228.301 36.5815C227.51 35.3646 225.903 35.0058 224.711 35.7801C223.518 36.5545 223.192 38.1688 223.983 39.3857C224.773 40.6027 226.38 40.9615 227.573 40.1871C228.765 39.4128 229.091 37.7985 228.301 36.5815Z"></path>
<path fill="black" d="M171.242 11.4581C171.036 11.8712 170.918 12.3361 170.918 12.8292C170.918 14.5273 172.294 15.9042 173.992 15.9044C174.351 15.9044 174.695 15.8387 175.015 15.7257C174.486 16.6107 173.509 17.2072 172.387 17.2072C170.705 17.2069 169.342 15.8706 169.342 14.2228C169.342 12.9718 170.128 11.9016 171.242 11.4581Z"></path>
</g>
<defs>
<clipPath id="clip0_81_130">
<rect fill="white" height="59.8" width="237.928"></rect>
</clipPath>
</defs>
</svg>
